<?xml version="1.0" standalone="no"?>
<!-- Generator: Adobe Fireworks 10, Export SVG Extension by Aaron Beall (http://fireworks.abeall.com) . Version: 0.6.1  -->
<!DOCTYPE svg PUBLIC "-//W3C//DTD SVG 1.1//EN" "http://www.w3.org/Graphics/SVG/1.1/DTD/svg11.dtd">
<svg id="Untitled-Page%201" viewBox="0 0 110 35" style="background-color:#ffffff00" version="1.1"
	xmlns="http://www.w3.org/2000/svg" xmlns:xlink="http://www.w3.org/1999/xlink" xml:space="preserve"
	x="0px" y="0px" width="110px" height="35px"
>
	<g id="Layer%201">
		<g>
			<g id="g3733">
				<path d="M 26.5706 31.2848 L 25.6089 21.3894 L 15.4841 20.0361 L 24.8391 16.2758 L 22.8405 6.5084 L 29.5837 14.08 L 38.4733 9.3966 L 33.286 17.8364 L 40.7787 24.7092 L 30.8295 22.3538 L 26.5707 31.2849 L 26.5706 31.2848 Z" fill="#ee1d25"/>
				<g id="g877">
					<path d="M 102.8506 5.1364 L 109 5.1364 L 106.4664 25.0558 L 102.85 5.1364 L 102.8506 5.1364 Z" fill="#ee1d25"/>
					<path d="M 107.9885 31.5133 C 108.0109 32.5958 107.3093 33.4731 106.4218 33.4731 C 105.5342 33.4731 104.7968 32.5958 104.7745 31.5133 L 104.7745 31.5133 C 104.7523 30.4308 105.4539 29.5535 106.3414 29.5535 C 107.2289 29.5535 107.9664 30.4308 107.9885 31.5133 Z" fill="#ee1d25"/>
				</g>
			</g>
			<path d="M 38.375 9.125 C 38.375 9.125 38.625 9.375 38.625 9.625 L 33.875 17.625 C 35.875 19.875 38.375 22.125 40.875 24.875 C 40.875 24.875 40.625 25.125 40.375 25.125 L 31.125 22.875 C 29.625 25.625 28.375 28.375 26.875 31.125 C 26.875 31.125 26.875 31.375 26.125 31.625 C 25.625 28.125 25.875 24.875 24.625 21.625 C 22.125 21.375 15.125 20.625 15.125 20.125 C 15.125 19.375 18.625 18.125 20.875 17.375 C 21.625 16.875 23.625 16.375 24.125 15.375 L 22.375 6.375 C 24.375 7.125 27.625 11.875 29.625 13.625 L 38.375 9.125 ZM 29.625 14.625 C 30.125 14.625 34.375 12.375 36.625 11.125 C 35.125 13.375 32.625 17.125 32.625 17.875 C 32.625 18.375 36.625 21.875 38.625 23.625 L 31.125 21.875 C 28.625 23.125 28.125 26.875 26.875 29.125 C 26.625 26.625 26.375 23.625 25.875 21.375 C 25.625 20.375 24.125 20.625 23.375 20.375 C 21.875 20.125 20.125 20.125 18.375 19.875 L 18.125 19.625 C 20.375 18.375 23.375 18.125 25.375 16.125 L 23.875 8.625 C 24.375 9.375 28.625 14.625 29.625 14.625 Z" fill="#ee1d25"/>
			<path d="M 65.875 19.75 C 65.875 25.75 61.875 30.25 55.875 30.25 C 55.125 30.25 52.875 29.5 51.375 29.25 C 48.375 28.75 42.125 22 42.125 19 C 42.125 18.5 42.375 18.25 43.125 18.25 C 43.625 18.25 43.625 18.25 43.625 18.5 C 45.125 24.5 51.375 28.5 55.875 28.5 C 60.875 28.5 64.125 24 64.125 19.75 C 64.125 14.75 59.375 8.5 53.625 8.5 C 49.375 8.5 47.375 12.25 47.375 15.25 C 47.375 19.25 50.625 24.25 55.125 24.25 C 58.375 24.25 60.125 21.25 60.125 19 C 60.125 15.75 56.875 12.75 54.375 12.75 C 52.125 12.75 51.375 14.75 51.375 16 C 51.375 18.25 52.875 19.75 54.375 19.75 C 55.375 19.75 55.875 19.5 56.125 18.25 L 55.625 17.75 C 55.375 18 55.125 18.25 54.625 18.25 C 53.625 18.25 53.375 17.25 53.375 16.75 C 53.375 15.25 54.625 15.25 55.125 15.25 C 57.125 15.25 57.875 17.5 57.875 18.25 C 57.875 20 56.125 21.75 54.625 21.75 C 51.625 21.75 49.375 18.25 49.375 16 C 49.375 12.5 52.125 11 54.375 11 C 59.625 11 61.875 16.25 61.875 19 C 61.875 23.5 58.625 26 55.125 26 C 48.875 26 45.375 19.5 45.375 15.25 C 45.375 10.5 49.125 6.75 53.625 6.75 C 60.875 6.75 65.875 13.75 65.875 19.75 Z" fill="#ee1d25"/>
			<path d="M 109.375 4.625 L 109.375 6.625 L 106.625 25.375 L 106.125 25.375 L 102.625 6.375 L 102.875 4.625 L 109.375 4.625 ZM 108.375 5.625 L 106.375 21.125 L 103.625 5.625 L 108.375 5.625 Z" fill="#ee1d25"/>
			<path d="M 12.75 5.25 L 4.5 18.25 C 7.25 18 11.25 17 12 17 L 14 17 C 14 17.25 14.25 17.75 14.25 17.75 L 5.5 30.5 C 7 30 8.25 29.25 9.5 28.5 L 10.75 28.5 C 10.75 28.75 11 28.75 11 29.25 C 11 30 9.75 30.5 9.25 30.75 C 7 32 2.75 34.75 2 34.75 C 1 34.75 0.75 33.75 0.75 33.5 C 0.75 32.75 1 31.25 1 30 C 1 28 0.5 26.5 2 24.75 C 3.5 25.5 3 25.75 3 26.5 L 3 30.25 L 11 19.5 C 10.75 19.25 10.5 19.25 10.25 19.25 L 2.75 20.75 C 1.75 20 1.75 19.75 1.75 19.5 C 1.75 19 10.75 4.25 11.75 4.25 C 12.5 4.25 12.75 4.75 12.75 5.25 Z" fill="#ee1d25"/>
			<path d="M 85.25 2.375 C 85.25 3.375 84.25 7.125 83 7.125 C 81.75 7.125 81.75 5.625 81.75 5.375 C 81.75 4.625 82.25 0.875 83.75 0.875 C 84.75 0.875 85.25 1.625 85.25 2.375 Z" fill="#ee1d25"/>
			<path d="M 94.5 18.125 C 94.5 19.375 93 19.625 92.75 19.625 C 91.75 19.625 88.5 18.875 88.5 17.625 C 88.5 16.375 89.25 16.375 90.25 16.375 C 91.25 16.375 94.5 16.625 94.5 18.125 Z" fill="#ee1d25"/>
			<path d="M 73 14.125 C 73 15.125 72 15.625 71.5 15.625 C 70 15.625 68 14.875 68 13.625 C 68 12.625 68.75 12.375 69.5 12.375 C 70.75 12.375 73 12.375 73 14.125 Z" fill="#ee1d25"/>
			<path d="M 92.375 8.5 C 92.375 9.25 89.375 11.75 88.875 11.75 C 87.875 11.75 87.625 10.75 87.625 10.25 C 87.625 9.5 89.625 7.25 90.875 7.25 C 91.875 7.25 92.375 8 92.375 8.5 Z" fill="#ee1d25"/>
			<path d="M 73.75 23.125 C 73.75 24.625 70.75 26.125 70.5 26.125 C 69.5 26.125 69.25 25.125 69.25 24.625 C 69.25 23.625 71.5 21.875 72.25 21.875 C 73.25 21.875 73.75 22.625 73.75 23.125 Z" fill="#ee1d25"/>
			<path d="M 77.5 7.5 C 77.5 8.5 76.5 9 76 9 C 74.75 9 73.5 5.5 73.5 5.25 C 73.5 4.25 74.25 4 74.75 4 C 76 4 77.5 7.25 77.5 7.5 Z" fill="#ee1d25"/>
			<path d="M 87.875 27.875 C 87.875 28.375 87.375 29.375 86.625 29.375 C 85.375 29.375 84.125 26.375 84.125 26.125 C 84.125 25.375 84.875 24.625 85.625 24.625 C 86.625 24.625 87.875 27.375 87.875 27.875 Z" fill="#ee1d25"/>
			<path d="M 79.25 27.375 C 79.25 28.875 78.25 32.125 77 32.125 C 76 32.125 75.75 31.125 75.75 30.625 C 75.75 29.625 76.5 25.875 78 25.875 C 79 25.875 79.25 26.625 79.25 27.375 Z" fill="#ee1d25"/>
			<path d="M 81.625 17.6563 C 81.375 17.6563 80.875 17.9063 80.875 17.1563 C 80.875 16.6563 81.125 16.9063 81.375 16.9063 L 81.625 17.6563 ZM 84.375 17.9063 C 84.375 17.9063 84.125 18.1563 83.625 18.1563 C 83.625 18.1563 83.625 17.9063 83.375 17.6563 L 83.875 17.1563 C 84.125 17.4063 84.375 17.6563 84.375 17.9063 ZM 78.875 19.4063 L 78.875 18.6563 C 79.625 18.9063 79.625 19.4063 79.375 19.6563 L 78.875 19.4063 ZM 85.375 19.6563 L 85.125 21.4063 L 84.625 21.1563 L 84.875 19.6563 L 85.375 19.6563 ZM 79.375 22.1563 C 79.125 22.1563 78.625 22.4063 78.625 21.6563 C 78.625 21.1563 78.875 21.4063 79.125 21.4063 L 79.375 22.1563 ZM 83.875 23.4063 L 83.125 23.4063 C 83.125 23.1563 83.375 22.9063 83.875 22.6563 C 84.125 22.9063 84.125 23.1563 83.875 23.4063 ZM 80.625 23.9063 L 80.625 23.1563 C 81.375 23.4063 81.375 23.6563 81.375 23.9063 L 80.625 23.9063 Z" fill="#ee1d25"/>
		</g>
	</g>
</svg>