<?xml version="1.0" standalone="no"?>
<!-- Generator: Adobe Fireworks 10, Export SVG Extension by Aaron Beall (http://fireworks.abeall.com) . Version: 0.6.1  -->
<!DOCTYPE svg PUBLIC "-//W3C//DTD SVG 1.1//EN" "http://www.w3.org/Graphics/SVG/1.1/DTD/svg11.dtd">
<svg id="Untitled-Page%201" viewBox="0 0 59 60" style="background-color:#ffffff00" version="1.1"
	xmlns="http://www.w3.org/2000/svg" xmlns:xlink="http://www.w3.org/1999/xlink" xml:space="preserve"
	x="0px" y="0px" width="59px" height="60px"
>
	<defs>
		<linearGradient id="gradient1" x1="7.7018%" y1="23.3406%" x2="92.2987%" y2="76.6587%">
			<stop stop-color="#3ddeed" stop-opacity="1" offset="1%"/>
			<stop stop-color="#3ddeed" stop-opacity="0" offset="99%"/>
		</linearGradient>
	</defs>
	<g id="Layer%201">
		<g>
			<path d="M 57.0743 22.3228 C 61.0382 37.5516 51.9061 53.1104 36.6773 57.0743 C 21.4483 61.0381 5.8896 51.906 1.9257 36.6772 C -2.0382 21.4484 7.0939 5.8895 22.3228 1.9257 C 37.5517 -2.0381 53.1104 7.0939 57.0743 22.3228 Z" stroke="#ffffff" stroke-width="1" fill="#f7931e"/>
			<path d="M 29.1546 29.1072 L 29.1546 29.1072 Z" stroke="#ffffff" stroke-width="1" fill="#f59c05"/>
			<path d="M 52.9809 23.4236 C 56.3551 36.387 48.5815 49.6313 35.6182 53.0055 C 22.6547 56.3796 9.4105 48.6061 6.0363 35.6426 C 2.6622 22.6793 10.4357 9.4351 23.3991 6.0609 C 36.3625 2.6866 49.6067 10.4602 52.9809 23.4236 Z" stroke="#ffffff" stroke-width="2" fill="#ffffff"/>
			<path d="M 9.9429 15.1996 L 17.7117 21.2336 L 41.8371 36.2721 L 50.0498 42.4281 C 50.0498 42.4281 61.9319 24.5547 43.6437 9.8236 C 43.6437 9.8236 25.599 -3.4334 9.9429 15.1996 Z" stroke="#ffffff" stroke-width="1" fill="#0067ff"/>
			<path d="M 25.0907 43.1795 L 22.3723 52.7157 C 22.3723 52.7157 16.8812 50.2974 15.2512 49.155 C 13.4739 47.9093 10.5044 44.6526 9.2503 42.8813 C 8.1061 41.2654 6.5509 37.5547 6.0363 35.6426 C 5.3579 33.1216 5.184 27.7779 5.639 25.2071 C 6.077 22.7331 8.1626 18.0663 9.4455 15.9061 C 9.5558 15.7203 9.9429 15.1996 9.9429 15.1996 L 17.7117 21.2336 L 27.2678 42.0263 L 25.0907 43.1795 Z" stroke="#ffffff" stroke-width="1" fill="#65c8d0"/>
			<path d="M 43.0828 33.6418 C 40.6991 41.1401 32.6881 45.2864 25.1897 42.9027 C 17.6913 40.519 13.5451 32.5079 15.9288 25.0096 C 18.3125 17.5112 26.3235 13.365 33.8219 15.7487 C 41.3202 18.1324 45.4665 26.1434 43.0828 33.6418 Z" stroke="#ffffff" stroke-width="5" fill="url(#gradient1)"/>
			<path d="M 52.8101 23.5877 C 56.1637 36.4724 48.4373 49.6362 35.5527 52.9899 C 22.6679 56.3437 9.5041 48.6173 6.1503 35.7325 C 2.7967 22.8478 10.523 9.684 23.4077 6.3303 C 36.2925 2.9766 49.4563 10.703 52.8101 23.5877 Z" stroke="#ffffff" stroke-width="2" fill="none"/>
			<g>
				<path d="M 30.8999 49.4056 L 28.2879 49.3753 L 28.2809 50.0871 L 29.9429 50.1058 L 29.9236 51.7084 C 29.723 51.7902 29.4936 51.861 29.2336 51.9138 C 28.9702 51.9676 28.7065 51.9918 28.4469 51.9891 C 27.727 51.9804 27.163 51.7463 26.7522 51.2763 C 26.3422 50.8098 26.1397 50.1599 26.1507 49.3213 C 26.1596 48.5313 26.3706 47.9069 26.7872 47.4472 C 27.2039 46.9874 27.7661 46.7598 28.4711 46.7686 C 28.7829 46.7725 29.0654 46.8063 29.3126 46.8751 C 29.5599 46.9439 29.7777 47.0277 29.9732 47.1248 C 30.132 47.2092 30.2962 47.3143 30.4624 47.4412 C 30.6286 47.5681 30.7546 47.6684 30.8404 47.7422 L 30.9186 47.7441 L 30.9283 46.6876 C 30.4929 46.4644 30.0885 46.3034 29.7082 46.2063 C 29.3287 46.1128 28.9601 46.0608 28.5962 46.0556 C 27.5508 46.0466 26.7261 46.3315 26.124 46.9171 C 25.5184 47.5037 25.2102 48.3087 25.2027 49.3313 C 25.1933 49.8921 25.2693 50.3827 25.4261 50.8004 C 25.5795 51.2191 25.8043 51.5711 26.0987 51.8495 C 26.3862 52.1297 26.7364 52.3381 27.151 52.4816 C 27.5648 52.6217 28.0205 52.6955 28.518 52.7028 C 28.9035 52.706 29.3033 52.6501 29.7181 52.5384 C 30.132 52.4233 30.5188 52.2894 30.8707 52.135 L 30.8999 49.4056 L 30.8999 49.4056 Z" fill="#0066ff"/>
				<path d="M 36.5793 44.6324 L 35.7041 44.9082 L 36.8631 48.5783 C 36.9545 48.8725 37.0099 49.128 37.0241 49.3388 C 37.0392 49.5531 37.0142 49.7556 36.9448 49.9437 C 36.8688 50.1632 36.7369 50.3528 36.5448 50.5101 C 36.3527 50.6673 36.1013 50.7956 35.7862 50.8924 C 35.4755 50.9917 35.1972 51.0309 34.9478 51.0107 C 34.6993 50.994 34.4832 50.9171 34.2996 50.78 C 34.1361 50.6635 33.9984 50.5182 33.8899 50.343 C 33.7823 50.1713 33.6766 49.9215 33.5762 49.5926 L 32.4227 45.9433 L 31.5475 46.2191 L 32.6814 49.8069 C 32.823 50.2656 32.9958 50.6311 33.1973 50.9078 C 33.3997 51.188 33.6544 51.399 33.9657 51.5436 C 34.2361 51.6729 34.5381 51.7386 34.8749 51.7397 C 35.2093 51.7451 35.5846 51.6808 35.994 51.5483 C 36.3974 51.4212 36.7336 51.2634 37.0061 51.0742 C 37.2786 50.8849 37.4961 50.6545 37.6575 50.3796 C 37.8267 50.0915 37.9121 49.766 37.9156 49.4101 C 37.9191 49.0542 37.8493 48.6582 37.7131 48.2202 L 36.5793 44.6324 L 36.5793 44.6324 Z" fill="#0066ff"/>
				<path d="M 40.9172 42.6826 C 40.6696 42.5696 40.4008 42.5175 40.1118 42.5298 C 39.8636 42.5426 39.6158 42.5997 39.3624 42.7063 C 39.1091 42.8129 38.8302 42.9779 38.5181 43.1997 L 37.1153 44.2192 L 40.8709 49.3955 L 41.4684 48.9626 L 40.0253 46.9714 L 40.7374 46.4533 C 41.1168 46.1771 41.405 45.9061 41.5934 45.6352 C 41.7818 45.3643 41.9023 45.074 41.9584 44.7636 C 42.0046 44.5149 41.9987 44.265 41.9407 44.0138 C 41.8827 43.7627 41.7762 43.5241 41.6134 43.2965 C 41.397 43.0052 41.1658 42.7991 40.9172 42.6826 L 40.9172 42.6826 ZM 41.2427 44.2028 C 41.2755 44.357 41.2728 44.5315 41.2304 44.7238 C 41.1845 44.9169 41.0856 45.1054 40.9277 45.2944 C 40.7698 45.4834 40.5347 45.6888 40.2295 45.9087 L 39.5889 46.375 L 38.1458 44.3838 L 38.8984 43.8366 C 39.1381 43.6633 39.3487 43.5345 39.5268 43.4512 C 39.7048 43.3679 39.8832 43.3141 40.0549 43.2916 C 40.2526 43.2697 40.4344 43.3001 40.5983 43.3758 C 40.7588 43.4523 40.9024 43.5777 41.0282 43.7483 C 41.1339 43.8983 41.2065 44.0496 41.2427 44.2028 L 41.2427 44.2028 Z" fill="#0066ff"/>
			</g>
			<path d="M 20.1354 22.0027 L 40.4177 34.6313 L 42.9537 25.5827 L 37.4495 17.8886 L 28.2675 15.9754 L 20.1354 22.0027 Z" fill="#0067ff"/>
			<path d="M 20.1354 21.333 L 17.8393 23.8397 L 26.5093 42.4281 L 34.2948 41.711 L 40.2263 36.2577 L 40.4177 34.6313 L 20.1354 21.333 Z" fill="#65c8d0"/>
			<path d="M 18.5219 25.3033 L 26.5093 42.4281 L 19.37 37.6927 L 16.3269 30.4217 L 16.3269 26.5949 L 18.5219 25.3033 Z" fill="#f7931e"/>
			<path d="M 42.7026 29.3485 C 42.7026 36.5865 36.8351 42.4539 29.5973 42.4539 C 22.3594 42.4539 16.4919 36.5865 16.4919 29.3485 C 16.4919 22.1107 22.3594 16.2432 29.5973 16.2432 C 36.8351 16.2432 42.7026 22.1107 42.7026 29.3485 Z" stroke="#ffffff" stroke-width="3" fill="none"/>
		</g>
	</g>
</svg>