<svg xmlns="http://www.w3.org/2000/svg" viewBox="9310.167 9346 7.636 14.123">
  <defs>
    <style>
      .cls-1 {
        fill: #8497a2;
      }
    </style>
  </defs>
  <path id="Path_1813" data-name="Path 1813" class="cls-1" d="M29.425,0,27.594,0a3.216,3.216,0,0,0-3.387,3.476v1.6H22.365a.288.288,0,0,0-.288.288V7.688a.288.288,0,0,0,.288.288h1.841v5.859a.288.288,0,0,0,.288.288h2.4a.288.288,0,0,0,.288-.288V7.976h2.153a.288.288,0,0,0,.288-.288V5.366a.288.288,0,0,0-.288-.288H27.185V3.72c0-.653.156-.984,1.006-.984h1.234a.288.288,0,0,0,.288-.288V.291A.288.288,0,0,0,29.425,0Z" transform="translate(9288.09 9346)"/>
</svg>
