<svg xmlns="http://www.w3.org/2000/svg" viewBox="9443 9344.999 15.883 15.178">
  <defs>
    <style>
      .cls-1 {
        fill: #8497a2;
      }
    </style>
  </defs>
  <g id="Group_2405" data-name="Group 2405" transform="translate(8081 7150)">
    <path id="LinkedIn" class="cls-1" d="M15.883,18.863v5.872h-3.4V19.256c0-1.376-.492-2.316-1.725-2.316a1.863,1.863,0,0,0-1.747,1.245,2.329,2.329,0,0,0-.113.83v5.719H5.489s.046-9.279,0-10.241H8.894v1.452l-.022.033h.022v-.033a3.381,3.381,0,0,1,3.069-1.692C14.2,14.254,15.883,15.718,15.883,18.863ZM1.927,9.558A1.775,1.775,0,1,0,1.882,13.1H1.9a1.775,1.775,0,1,0,.022-3.539ZM.2,24.735h3.4V14.495H.2Z" transform="translate(1362 2185.442)"/>
  </g>
</svg>
