<?xml version="1.0" encoding="utf-8"?>
<!-- Generator: Adobe Illustrator 21.1.0, SVG Export Plug-In . SVG Version: 6.00 Build 0)  -->
<svg version="1.1" id="Layer_1" xmlns="http://www.w3.org/2000/svg" xmlns:xlink="http://www.w3.org/1999/xlink" x="0px" y="0px"
	 viewBox="0 0 106.1 106.1" style="enable-background:new 0 0 106.1 106.1;" xml:space="preserve">
<style type="text/css">
	.st0{fill:#FFFFFF;}
	.st1{fill:#3072AC;}
	.st2{fill:#F59440;}
	.st3{fill:#45A7B9;}
</style>
<g id="Symbol_66_44" transform="translate(-10.608 -1620.679)">
	<g transform="matrix(1, 0, 0, 1, 10.61, 1620.68)">
		<circle id="Ellipse_46-2" class="st0" cx="53" cy="53" r="53"/>
	</g>
	<g id="Gup_Logo_International_carved" transform="translate(271.947 1370.019)">
		<path id="Path_699" class="st1" d="M-207.9,353.2c-27.1,0-49.1-22-49.1-49.1c0-27.1,22-49.1,49.1-49.1c27.1,0,49.1,22,49.1,49.1
			c0,13-5.2,25.5-14.4,34.7C-182.4,348-194.9,353.2-207.9,353.2z M-207.9,255.8c-26.7,0-48.3,21.6-48.3,48.3
			c0,26.7,21.6,48.3,48.3,48.3s48.3-21.6,48.3-48.3l0,0C-159.7,277.4-181.3,255.8-207.9,255.8L-207.9,255.8z"/>
		<g id="Group_1725" transform="translate(0 0)">
			<path id="Path_700" class="st2" d="M-207.9,353.2c-27.1,0-49.1-22-49.1-49.1c0-27.1,22-49.1,49.1-49.1s49.1,22,49.1,49.1
				C-158.9,331.2-180.8,353.1-207.9,353.2z M-207.9,261.2c-23.7,0-42.9,19.2-42.9,42.9s19.2,42.9,42.9,42.9s42.9-19.2,42.9-42.9l0,0
				C-165,280.4-184.2,261.2-207.9,261.2L-207.9,261.2z"/>
		</g>
		<g id="Group_1726" transform="translate(17.713 9.091)">
			<path id="Path_701" class="st1" d="M-191.9,316.5l-9.5-6.1c8.5-13.4,4.6-31.2-8.8-39.7c-12.4-7.9-28.8-5.1-38,6.4l-8.8-7
				c13.8-17.3,38.9-20.2,56.2-6.4C-184.8,276.5-181,299.2-191.9,316.5z"/>
		</g>
		<g id="Group_1727" transform="translate(9.067 26.827)">
			<path id="Path_702" class="st3" d="M-230.1,315.1c-20.9-7.2-32-30-24.8-50.9c1.1-3.3,2.7-6.3,4.6-9.2l9.3,6.3
				c-8.8,13.2-5.3,31.1,7.9,39.9c2,1.4,4.3,2.5,6.6,3.3L-230.1,315.1z"/>
		</g>
		<path id="Path_703" class="st1" d="M-204.7,342.5c-0.5,0.5-1,0.9-1.7,1.2c-0.9,0.4-1.9,0.5-2.9,0.4c-1.3,0-2.6-0.5-3.5-1.5
			c-0.9-1-1.4-2.3-1.3-3.6l0.1-2.5c0-1.3,0.5-2.6,1.5-3.5c0.9-0.9,2.2-1.3,3.5-1.2c1.2,0,2.4,0.4,3.3,1.2c0.8,0.7,1.2,1.8,1.1,2.9
			l0,0l-2.3-0.1c0-0.6-0.2-1.1-0.6-1.5c-1-0.9-2.5-0.8-3.4,0.2c0,0,0,0,0,0c-0.5,0.6-0.8,1.4-0.8,2.2l-0.1,2.5
			c-0.1,0.8,0.2,1.6,0.6,2.2c0.4,0.6,1.1,0.9,1.9,0.9c0.5,0,0.9,0,1.4-0.1c0.3-0.1,0.6-0.2,0.8-0.4l0.1-2.2l-2.1-0.1l0.1-1.7
			l4.5,0.2L-204.7,342.5z"/>
		<path id="Path_704" class="st1" d="M-194,328.8l2.7,7.5c0.5,1.1,0.4,2.3-0.2,3.4c-0.7,1.1-1.7,1.8-2.9,2.2
			c-1.2,0.5-2.4,0.5-3.6,0.1c-1.1-0.4-2-1.3-2.3-2.5l-2.7-7.5l2.3-0.8l2.7,7.5c0.2,0.6,0.6,1.2,1.2,1.5c0.6,0.2,1.3,0.2,1.9,0
			c0.6-0.2,1.1-0.6,1.5-1.1c0.3-0.6,0.3-1.3,0-1.9l-2.7-7.5L-194,328.8z"/>
		<path id="Path_705" class="st1" d="M-185.9,332.2l2.9,3.3l-1.8,1.6l-7.9-9l3.6-3.2c0.8-0.8,2-1.3,3.1-1.4c2.1,0.1,3.8,1.9,3.7,4
			c0,0,0,0.1,0,0.1c-0.2,1.2-0.8,2.2-1.8,2.9L-185.9,332.2z M-187.2,330.7l1.8-1.6c0.5-0.3,0.7-0.9,0.8-1.4c0-1.1-0.8-2-1.9-2.1
			c-0.6,0-1.1,0.2-1.5,0.6l-1.8,1.6L-187.2,330.7z"/>
		<path id="Path_719" class="st1" d="M-190.3,312.7c4.8-9.8,0.7-21.5-9-26.3c-7.9-3.9-17.5-2-23.4,4.7L-190.3,312.7z"/>
		<path id="Path_720" class="st3" d="M-222.7,291.1c-0.8,1-1.6,2-2.2,3.1l13,29.1c1.3,0.3,2.6,0.4,4,0.4c7.5,0,14.4-4.3,17.7-11
			L-222.7,291.1z"/>
		<path id="Path_721" class="st2" d="M-226.3,297.1c-3.9,10.1,1.2,21.5,11.3,25.4L-226.3,297.1z"/>
	</g>
</g>
</svg>
