<svg xmlns="http://www.w3.org/2000/svg" viewBox="9508.438 9343.438 19.562 19.562">
  <defs>
    <style>
      .cls-1 {
        fill: #8497a2;
      }
    </style>
  </defs>
  <path id="pinterest" class="cls-1" d="M19.557,10.067A9.781,9.781,0,1,0,5.509,18.581a.276.276,0,0,0,.4-.259,7.353,7.353,0,0,1,.123-1.843c.124-.532.61-2.592.93-3.944a4.836,4.836,0,0,0,.049-2.007,4.107,4.107,0,0,1-.071-.759c0-1.446.838-2.525,1.881-2.525a1.306,1.306,0,0,1,1.315,1.464,20.944,20.944,0,0,1-.861,3.462,1.509,1.509,0,0,0,1.54,1.879c1.848,0,3.268-1.948,3.268-4.761a4.1,4.1,0,0,0-4.343-4.23A4.5,4.5,0,0,0,5.042,9.569a4.044,4.044,0,0,0,.774,2.373.311.311,0,0,1,.072.3c-.079.328-.254,1.035-.289,1.179-.045.19-.151.231-.348.139-1.3-.6-2.11-2.5-2.11-4.028,0-3.28,2.383-6.291,6.869-6.291a6.1,6.1,0,0,1,6.409,6c0,3.583-2.259,6.467-5.395,6.467a3.06,3.06,0,0,1-2.083-.8.26.26,0,0,0-.435.117c-.163.623-.428,1.63-.513,1.958a9.036,9.036,0,0,1-.8,1.874.276.276,0,0,0,.176.4,9.8,9.8,0,0,0,2.5.3A9.945,9.945,0,0,0,19.557,10.067Z" transform="translate(9508.438 9343.439)"/>
</svg>
