<svg xmlns="http://www.w3.org/2000/svg" viewBox="9376 9346 16.644 13.519">
  <defs>
    <style>
      .cls-1 {
        fill: #8497a2;
      }
    </style>
  </defs>
  <path id="Path_1371" data-name="Path 1371" class="cls-1" d="M16.644,59.041a6.818,6.818,0,0,1-1.96.538,3.428,3.428,0,0,0,1.5-1.888,6.883,6.883,0,0,1-2.169.829A3.417,3.417,0,0,0,8.2,61.632a9.693,9.693,0,0,1-7.037-3.567,3.418,3.418,0,0,0,1.057,4.557,3.414,3.414,0,0,1-1.546-.428v.043a3.418,3.418,0,0,0,2.738,3.348,3.458,3.458,0,0,1-.9.12,3.277,3.277,0,0,1-.643-.063,3.416,3.416,0,0,0,3.189,2.371,6.85,6.85,0,0,1-4.24,1.459A7.256,7.256,0,0,1,0,69.424,9.651,9.651,0,0,0,5.234,70.96a9.647,9.647,0,0,0,9.714-9.714l-.011-.442A6.818,6.818,0,0,0,16.644,59.041Z" transform="translate(9375.999 9288.559)"/>
</svg>
